<mxfile host="Electron" modified="2023-10-19T05:40:58.624Z" agent="Mozilla/5.0 (Windows NT 10.0; Win64; x64) AppleWebKit/537.36 (KHTML, like Gecko) draw.io/22.0.2 Chrome/114.0.5735.289 Electron/25.8.4 Safari/537.36" etag="VVg8Hjp2VHigTA3YkZue" version="22.0.2" type="device">
  <diagram name="第 1 页" id="5BDinMBQajONObAEUcj4">
    <mxGraphModel dx="1728" dy="997" grid="1" gridSize="10" guides="1" tooltips="1" connect="1" arrows="1" fold="1" page="1" pageScale="1" pageWidth="1169" pageHeight="827" math="0" shadow="0">
      <root>
        <mxCell id="0" />
        <mxCell id="1" parent="0" />
        <mxCell id="ijUd1GON8m7grL_-jOXo-1" value="0.21" style="rounded=0;whiteSpace=wrap;html=1;" vertex="1" parent="1">
          <mxGeometry x="240" y="246" width="50" height="30" as="geometry" />
        </mxCell>
        <mxCell id="ijUd1GON8m7grL_-jOXo-2" value="0.11" style="rounded=0;whiteSpace=wrap;html=1;" vertex="1" parent="1">
          <mxGeometry x="240" y="406" width="50" height="30" as="geometry" />
        </mxCell>
        <mxCell id="ijUd1GON8m7grL_-jOXo-3" value="0.09" style="rounded=0;whiteSpace=wrap;html=1;" vertex="1" parent="1">
          <mxGeometry x="240" y="446" width="50" height="30" as="geometry" />
        </mxCell>
        <mxCell id="ijUd1GON8m7grL_-jOXo-4" value="0.13" style="rounded=0;whiteSpace=wrap;html=1;" vertex="1" parent="1">
          <mxGeometry x="240" y="326" width="50" height="30" as="geometry" />
        </mxCell>
        <mxCell id="ijUd1GON8m7grL_-jOXo-29" style="edgeStyle=orthogonalEdgeStyle;rounded=0;orthogonalLoop=1;jettySize=auto;html=1;entryX=0;entryY=0.5;entryDx=0;entryDy=0;" edge="1" parent="1" source="ijUd1GON8m7grL_-jOXo-5" target="ijUd1GON8m7grL_-jOXo-10">
          <mxGeometry relative="1" as="geometry" />
        </mxCell>
        <mxCell id="ijUd1GON8m7grL_-jOXo-65" value="1" style="edgeLabel;html=1;align=center;verticalAlign=middle;resizable=0;points=[];" vertex="1" connectable="0" parent="ijUd1GON8m7grL_-jOXo-29">
          <mxGeometry x="-0.9211" relative="1" as="geometry">
            <mxPoint as="offset" />
          </mxGeometry>
        </mxCell>
        <mxCell id="ijUd1GON8m7grL_-jOXo-5" value="0.07" style="rounded=0;whiteSpace=wrap;html=1;fillColor=#f8cecc;strokeColor=#b85450;" vertex="1" parent="1">
          <mxGeometry x="240" y="526" width="50" height="30" as="geometry" />
        </mxCell>
        <mxCell id="ijUd1GON8m7grL_-jOXo-6" value="0.12" style="rounded=0;whiteSpace=wrap;html=1;" vertex="1" parent="1">
          <mxGeometry x="240" y="366" width="50" height="30" as="geometry" />
        </mxCell>
        <mxCell id="ijUd1GON8m7grL_-jOXo-28" style="edgeStyle=orthogonalEdgeStyle;rounded=0;orthogonalLoop=1;jettySize=auto;html=1;entryX=0;entryY=0.5;entryDx=0;entryDy=0;" edge="1" parent="1" source="ijUd1GON8m7grL_-jOXo-7" target="ijUd1GON8m7grL_-jOXo-10">
          <mxGeometry relative="1" as="geometry" />
        </mxCell>
        <mxCell id="ijUd1GON8m7grL_-jOXo-64" value="0" style="edgeLabel;html=1;align=center;verticalAlign=middle;resizable=0;points=[];" vertex="1" connectable="0" parent="ijUd1GON8m7grL_-jOXo-28">
          <mxGeometry x="-0.8952" y="1" relative="1" as="geometry">
            <mxPoint as="offset" />
          </mxGeometry>
        </mxCell>
        <mxCell id="ijUd1GON8m7grL_-jOXo-7" value="0.08" style="rounded=0;whiteSpace=wrap;html=1;fillColor=#f8cecc;strokeColor=#b85450;" vertex="1" parent="1">
          <mxGeometry x="240" y="486" width="50" height="30" as="geometry" />
        </mxCell>
        <mxCell id="ijUd1GON8m7grL_-jOXo-8" value="0.19" style="rounded=0;whiteSpace=wrap;html=1;" vertex="1" parent="1">
          <mxGeometry x="240" y="286" width="50" height="30" as="geometry" />
        </mxCell>
        <mxCell id="ijUd1GON8m7grL_-jOXo-10" value="0.15" style="whiteSpace=wrap;html=1;rounded=0;" vertex="1" parent="1">
          <mxGeometry x="340" y="326" width="50" height="30" as="geometry" />
        </mxCell>
        <mxCell id="ijUd1GON8m7grL_-jOXo-13" value="0.21" style="rounded=0;whiteSpace=wrap;html=1;" vertex="1" parent="1">
          <mxGeometry x="340" y="246" width="50" height="30" as="geometry" />
        </mxCell>
        <mxCell id="ijUd1GON8m7grL_-jOXo-27" style="edgeStyle=orthogonalEdgeStyle;rounded=0;orthogonalLoop=1;jettySize=auto;html=1;entryX=0;entryY=0.5;entryDx=0;entryDy=0;" edge="1" parent="1" source="ijUd1GON8m7grL_-jOXo-14" target="ijUd1GON8m7grL_-jOXo-21">
          <mxGeometry relative="1" as="geometry" />
        </mxCell>
        <mxCell id="ijUd1GON8m7grL_-jOXo-62" value="0" style="edgeLabel;html=1;align=center;verticalAlign=middle;resizable=0;points=[];" vertex="1" connectable="0" parent="ijUd1GON8m7grL_-jOXo-27">
          <mxGeometry x="-0.8652" y="1" relative="1" as="geometry">
            <mxPoint as="offset" />
          </mxGeometry>
        </mxCell>
        <mxCell id="ijUd1GON8m7grL_-jOXo-14" value="0.11" style="rounded=0;whiteSpace=wrap;html=1;fillColor=#f8cecc;strokeColor=#b85450;" vertex="1" parent="1">
          <mxGeometry x="340" y="446" width="50" height="30" as="geometry" />
        </mxCell>
        <mxCell id="ijUd1GON8m7grL_-jOXo-26" style="edgeStyle=orthogonalEdgeStyle;rounded=0;orthogonalLoop=1;jettySize=auto;html=1;entryX=0;entryY=0.5;entryDx=0;entryDy=0;" edge="1" parent="1" source="ijUd1GON8m7grL_-jOXo-15" target="ijUd1GON8m7grL_-jOXo-21">
          <mxGeometry relative="1" as="geometry" />
        </mxCell>
        <mxCell id="ijUd1GON8m7grL_-jOXo-63" value="1" style="edgeLabel;html=1;align=center;verticalAlign=middle;resizable=0;points=[];" vertex="1" connectable="0" parent="ijUd1GON8m7grL_-jOXo-26">
          <mxGeometry x="-0.8729" y="1" relative="1" as="geometry">
            <mxPoint y="1" as="offset" />
          </mxGeometry>
        </mxCell>
        <mxCell id="ijUd1GON8m7grL_-jOXo-15" value="0.09" style="rounded=0;whiteSpace=wrap;html=1;fillColor=#f8cecc;strokeColor=#b85450;" vertex="1" parent="1">
          <mxGeometry x="340" y="486" width="50" height="30" as="geometry" />
        </mxCell>
        <mxCell id="ijUd1GON8m7grL_-jOXo-16" value="0.13" style="rounded=0;whiteSpace=wrap;html=1;" vertex="1" parent="1">
          <mxGeometry x="340" y="366" width="50" height="30" as="geometry" />
        </mxCell>
        <mxCell id="ijUd1GON8m7grL_-jOXo-17" value="0.12" style="rounded=0;whiteSpace=wrap;html=1;" vertex="1" parent="1">
          <mxGeometry x="340" y="406" width="50" height="30" as="geometry" />
        </mxCell>
        <mxCell id="ijUd1GON8m7grL_-jOXo-18" value="0.19" style="rounded=0;whiteSpace=wrap;html=1;" vertex="1" parent="1">
          <mxGeometry x="340" y="286" width="50" height="30" as="geometry" />
        </mxCell>
        <mxCell id="ijUd1GON8m7grL_-jOXo-20" value="0.21" style="rounded=0;whiteSpace=wrap;html=1;" vertex="1" parent="1">
          <mxGeometry x="444" y="246" width="50" height="30" as="geometry" />
        </mxCell>
        <mxCell id="ijUd1GON8m7grL_-jOXo-21" value="0.2" style="rounded=0;whiteSpace=wrap;html=1;" vertex="1" parent="1">
          <mxGeometry x="444" y="286" width="50" height="30" as="geometry" />
        </mxCell>
        <mxCell id="ijUd1GON8m7grL_-jOXo-22" value="0.15" style="whiteSpace=wrap;html=1;rounded=0;" vertex="1" parent="1">
          <mxGeometry x="444" y="366" width="50" height="30" as="geometry" />
        </mxCell>
        <mxCell id="ijUd1GON8m7grL_-jOXo-35" style="edgeStyle=orthogonalEdgeStyle;rounded=0;orthogonalLoop=1;jettySize=auto;html=1;entryX=0;entryY=0.5;entryDx=0;entryDy=0;" edge="1" parent="1" source="ijUd1GON8m7grL_-jOXo-23" target="ijUd1GON8m7grL_-jOXo-34">
          <mxGeometry relative="1" as="geometry" />
        </mxCell>
        <mxCell id="ijUd1GON8m7grL_-jOXo-58" value="0" style="edgeLabel;html=1;align=center;verticalAlign=middle;resizable=0;points=[];" vertex="1" connectable="0" parent="ijUd1GON8m7grL_-jOXo-35">
          <mxGeometry x="-0.8988" y="-1" relative="1" as="geometry">
            <mxPoint as="offset" />
          </mxGeometry>
        </mxCell>
        <mxCell id="ijUd1GON8m7grL_-jOXo-23" value="0.13" style="rounded=0;whiteSpace=wrap;html=1;fillColor=#f8cecc;strokeColor=#b85450;" vertex="1" parent="1">
          <mxGeometry x="444" y="406" width="50" height="30" as="geometry" />
        </mxCell>
        <mxCell id="ijUd1GON8m7grL_-jOXo-36" style="edgeStyle=orthogonalEdgeStyle;rounded=0;orthogonalLoop=1;jettySize=auto;html=1;entryX=0;entryY=0.5;entryDx=0;entryDy=0;" edge="1" parent="1" source="ijUd1GON8m7grL_-jOXo-24" target="ijUd1GON8m7grL_-jOXo-34">
          <mxGeometry relative="1" as="geometry" />
        </mxCell>
        <mxCell id="ijUd1GON8m7grL_-jOXo-59" value="1" style="edgeLabel;html=1;align=center;verticalAlign=middle;resizable=0;points=[];" vertex="1" connectable="0" parent="ijUd1GON8m7grL_-jOXo-36">
          <mxGeometry x="-0.9199" y="1" relative="1" as="geometry">
            <mxPoint as="offset" />
          </mxGeometry>
        </mxCell>
        <mxCell id="ijUd1GON8m7grL_-jOXo-24" value="0.12" style="rounded=0;whiteSpace=wrap;html=1;fillColor=#f8cecc;strokeColor=#b85450;" vertex="1" parent="1">
          <mxGeometry x="444" y="446" width="50" height="30" as="geometry" />
        </mxCell>
        <mxCell id="ijUd1GON8m7grL_-jOXo-25" value="0.19" style="rounded=0;whiteSpace=wrap;html=1;" vertex="1" parent="1">
          <mxGeometry x="444" y="326" width="50" height="30" as="geometry" />
        </mxCell>
        <mxCell id="ijUd1GON8m7grL_-jOXo-30" value="0.21" style="rounded=0;whiteSpace=wrap;html=1;" vertex="1" parent="1">
          <mxGeometry x="540" y="286" width="50" height="30" as="geometry" />
        </mxCell>
        <mxCell id="ijUd1GON8m7grL_-jOXo-31" value="0.2" style="rounded=0;whiteSpace=wrap;html=1;" vertex="1" parent="1">
          <mxGeometry x="540" y="326" width="50" height="30" as="geometry" />
        </mxCell>
        <mxCell id="ijUd1GON8m7grL_-jOXo-41" style="edgeStyle=orthogonalEdgeStyle;rounded=0;orthogonalLoop=1;jettySize=auto;html=1;entryX=0;entryY=0.5;entryDx=0;entryDy=0;" edge="1" parent="1" source="ijUd1GON8m7grL_-jOXo-32" target="ijUd1GON8m7grL_-jOXo-40">
          <mxGeometry relative="1" as="geometry" />
        </mxCell>
        <mxCell id="ijUd1GON8m7grL_-jOXo-57" value="1" style="edgeLabel;html=1;align=center;verticalAlign=middle;resizable=0;points=[];" vertex="1" connectable="0" parent="ijUd1GON8m7grL_-jOXo-41">
          <mxGeometry x="-0.9014" y="3" relative="1" as="geometry">
            <mxPoint as="offset" />
          </mxGeometry>
        </mxCell>
        <mxCell id="ijUd1GON8m7grL_-jOXo-32" value="0.15" style="whiteSpace=wrap;html=1;rounded=0;" vertex="1" parent="1">
          <mxGeometry x="540" y="406" width="50" height="30" as="geometry" />
        </mxCell>
        <mxCell id="ijUd1GON8m7grL_-jOXo-42" style="edgeStyle=orthogonalEdgeStyle;rounded=0;orthogonalLoop=1;jettySize=auto;html=1;entryX=0;entryY=0.5;entryDx=0;entryDy=0;" edge="1" parent="1" source="ijUd1GON8m7grL_-jOXo-33" target="ijUd1GON8m7grL_-jOXo-40">
          <mxGeometry relative="1" as="geometry" />
        </mxCell>
        <mxCell id="ijUd1GON8m7grL_-jOXo-56" value="0" style="edgeLabel;html=1;align=center;verticalAlign=middle;resizable=0;points=[];" vertex="1" connectable="0" parent="ijUd1GON8m7grL_-jOXo-42">
          <mxGeometry x="-0.8696" y="2" relative="1" as="geometry">
            <mxPoint as="offset" />
          </mxGeometry>
        </mxCell>
        <mxCell id="ijUd1GON8m7grL_-jOXo-33" value="0.19" style="rounded=0;whiteSpace=wrap;html=1;fillColor=#f8cecc;strokeColor=#b85450;" vertex="1" parent="1">
          <mxGeometry x="540" y="366" width="50" height="30" as="geometry" />
        </mxCell>
        <mxCell id="ijUd1GON8m7grL_-jOXo-34" value="0.25" style="rounded=0;whiteSpace=wrap;html=1;" vertex="1" parent="1">
          <mxGeometry x="540" y="246" width="50" height="30" as="geometry" />
        </mxCell>
        <mxCell id="ijUd1GON8m7grL_-jOXo-46" style="edgeStyle=orthogonalEdgeStyle;rounded=0;orthogonalLoop=1;jettySize=auto;html=1;entryX=0;entryY=0.5;entryDx=0;entryDy=0;" edge="1" parent="1" source="ijUd1GON8m7grL_-jOXo-37" target="ijUd1GON8m7grL_-jOXo-45">
          <mxGeometry relative="1" as="geometry" />
        </mxCell>
        <mxCell id="ijUd1GON8m7grL_-jOXo-54" value="0" style="edgeLabel;html=1;align=center;verticalAlign=middle;resizable=0;points=[];" vertex="1" connectable="0" parent="ijUd1GON8m7grL_-jOXo-46">
          <mxGeometry x="-0.8024" y="-1" relative="1" as="geometry">
            <mxPoint x="-2" y="-1" as="offset" />
          </mxGeometry>
        </mxCell>
        <mxCell id="ijUd1GON8m7grL_-jOXo-37" value="0.21" style="rounded=0;whiteSpace=wrap;html=1;fillColor=#f8cecc;strokeColor=#b85450;" vertex="1" parent="1">
          <mxGeometry x="630" y="326" width="50" height="30" as="geometry" />
        </mxCell>
        <mxCell id="ijUd1GON8m7grL_-jOXo-47" style="edgeStyle=orthogonalEdgeStyle;rounded=0;orthogonalLoop=1;jettySize=auto;html=1;entryX=0;entryY=0.5;entryDx=0;entryDy=0;" edge="1" parent="1" source="ijUd1GON8m7grL_-jOXo-38" target="ijUd1GON8m7grL_-jOXo-45">
          <mxGeometry relative="1" as="geometry" />
        </mxCell>
        <mxCell id="ijUd1GON8m7grL_-jOXo-55" value="1" style="edgeLabel;html=1;align=center;verticalAlign=middle;resizable=0;points=[];" vertex="1" connectable="0" parent="ijUd1GON8m7grL_-jOXo-47">
          <mxGeometry x="-0.8875" y="2" relative="1" as="geometry">
            <mxPoint as="offset" />
          </mxGeometry>
        </mxCell>
        <mxCell id="ijUd1GON8m7grL_-jOXo-38" value="0.2" style="rounded=0;whiteSpace=wrap;html=1;" vertex="1" parent="1">
          <mxGeometry x="630" y="366" width="50" height="30" as="geometry" />
        </mxCell>
        <mxCell id="ijUd1GON8m7grL_-jOXo-39" value="0.25" style="rounded=0;whiteSpace=wrap;html=1;" vertex="1" parent="1">
          <mxGeometry x="630" y="286" width="50" height="30" as="geometry" />
        </mxCell>
        <mxCell id="ijUd1GON8m7grL_-jOXo-40" value="0.34" style="rounded=0;whiteSpace=wrap;html=1;" vertex="1" parent="1">
          <mxGeometry x="630" y="246" width="50" height="30" as="geometry" />
        </mxCell>
        <mxCell id="ijUd1GON8m7grL_-jOXo-51" style="edgeStyle=orthogonalEdgeStyle;rounded=0;orthogonalLoop=1;jettySize=auto;html=1;entryX=0;entryY=0.5;entryDx=0;entryDy=0;" edge="1" parent="1" source="ijUd1GON8m7grL_-jOXo-43" target="ijUd1GON8m7grL_-jOXo-49">
          <mxGeometry relative="1" as="geometry" />
        </mxCell>
        <mxCell id="ijUd1GON8m7grL_-jOXo-53" value="1" style="edgeLabel;html=1;align=center;verticalAlign=middle;resizable=0;points=[];" vertex="1" connectable="0" parent="ijUd1GON8m7grL_-jOXo-51">
          <mxGeometry x="-0.8747" relative="1" as="geometry">
            <mxPoint x="2" as="offset" />
          </mxGeometry>
        </mxCell>
        <mxCell id="ijUd1GON8m7grL_-jOXo-43" value="0.25" style="rounded=0;whiteSpace=wrap;html=1;" vertex="1" parent="1">
          <mxGeometry x="720" y="326" width="50" height="30" as="geometry" />
        </mxCell>
        <mxCell id="ijUd1GON8m7grL_-jOXo-50" style="edgeStyle=orthogonalEdgeStyle;rounded=0;orthogonalLoop=1;jettySize=auto;html=1;entryX=0;entryY=0.5;entryDx=0;entryDy=0;" edge="1" parent="1" source="ijUd1GON8m7grL_-jOXo-44" target="ijUd1GON8m7grL_-jOXo-49">
          <mxGeometry relative="1" as="geometry" />
        </mxCell>
        <mxCell id="ijUd1GON8m7grL_-jOXo-52" value="0" style="edgeLabel;html=1;align=center;verticalAlign=middle;resizable=0;points=[];" vertex="1" connectable="0" parent="ijUd1GON8m7grL_-jOXo-50">
          <mxGeometry x="-0.7683" y="-2" relative="1" as="geometry">
            <mxPoint as="offset" />
          </mxGeometry>
        </mxCell>
        <mxCell id="ijUd1GON8m7grL_-jOXo-44" value="0.34" style="rounded=0;whiteSpace=wrap;html=1;" vertex="1" parent="1">
          <mxGeometry x="720" y="286" width="50" height="30" as="geometry" />
        </mxCell>
        <mxCell id="ijUd1GON8m7grL_-jOXo-45" value="0.41" style="rounded=0;whiteSpace=wrap;html=1;" vertex="1" parent="1">
          <mxGeometry x="720" y="246" width="50" height="30" as="geometry" />
        </mxCell>
        <mxCell id="ijUd1GON8m7grL_-jOXo-82" style="edgeStyle=orthogonalEdgeStyle;rounded=0;orthogonalLoop=1;jettySize=auto;html=1;entryX=0;entryY=0.5;entryDx=0;entryDy=0;" edge="1" parent="1" source="ijUd1GON8m7grL_-jOXo-48" target="ijUd1GON8m7grL_-jOXo-80">
          <mxGeometry relative="1" as="geometry" />
        </mxCell>
        <mxCell id="ijUd1GON8m7grL_-jOXo-83" value="1" style="edgeLabel;html=1;align=center;verticalAlign=middle;resizable=0;points=[];" vertex="1" connectable="0" parent="ijUd1GON8m7grL_-jOXo-82">
          <mxGeometry x="-0.6736" y="-2" relative="1" as="geometry">
            <mxPoint as="offset" />
          </mxGeometry>
        </mxCell>
        <mxCell id="ijUd1GON8m7grL_-jOXo-48" value="0.41" style="rounded=0;whiteSpace=wrap;html=1;" vertex="1" parent="1">
          <mxGeometry x="820" y="286" width="50" height="30" as="geometry" />
        </mxCell>
        <mxCell id="ijUd1GON8m7grL_-jOXo-81" value="" style="edgeStyle=orthogonalEdgeStyle;rounded=0;orthogonalLoop=1;jettySize=auto;html=1;" edge="1" parent="1" source="ijUd1GON8m7grL_-jOXo-49" target="ijUd1GON8m7grL_-jOXo-80">
          <mxGeometry relative="1" as="geometry" />
        </mxCell>
        <mxCell id="ijUd1GON8m7grL_-jOXo-84" value="" style="edgeStyle=orthogonalEdgeStyle;rounded=0;orthogonalLoop=1;jettySize=auto;html=1;" edge="1" parent="1" source="ijUd1GON8m7grL_-jOXo-49" target="ijUd1GON8m7grL_-jOXo-80">
          <mxGeometry relative="1" as="geometry" />
        </mxCell>
        <mxCell id="ijUd1GON8m7grL_-jOXo-85" value="1" style="edgeLabel;html=1;align=center;verticalAlign=middle;resizable=0;points=[];" vertex="1" connectable="0" parent="ijUd1GON8m7grL_-jOXo-84">
          <mxGeometry x="-0.4952" y="2" relative="1" as="geometry">
            <mxPoint as="offset" />
          </mxGeometry>
        </mxCell>
        <mxCell id="ijUd1GON8m7grL_-jOXo-86" value="0&lt;br&gt;" style="edgeLabel;html=1;align=center;verticalAlign=middle;resizable=0;points=[];" vertex="1" connectable="0" parent="ijUd1GON8m7grL_-jOXo-84">
          <mxGeometry x="-0.4676" y="1" relative="1" as="geometry">
            <mxPoint as="offset" />
          </mxGeometry>
        </mxCell>
        <mxCell id="ijUd1GON8m7grL_-jOXo-49" value="0.59" style="rounded=0;whiteSpace=wrap;html=1;" vertex="1" parent="1">
          <mxGeometry x="820" y="246" width="50" height="30" as="geometry" />
        </mxCell>
        <mxCell id="ijUd1GON8m7grL_-jOXo-80" value="" style="whiteSpace=wrap;html=1;rounded=0;" vertex="1" parent="1">
          <mxGeometry x="920" y="248.5" width="55" height="25" as="geometry" />
        </mxCell>
        <mxCell id="ijUd1GON8m7grL_-jOXo-118" value="" style="shape=table;startSize=0;container=1;collapsible=0;childLayout=tableLayout;" vertex="1" parent="1">
          <mxGeometry x="880" y="341" width="80" height="240" as="geometry" />
        </mxCell>
        <mxCell id="ijUd1GON8m7grL_-jOXo-119" value="" style="shape=tableRow;horizontal=0;startSize=0;swimlaneHead=0;swimlaneBody=0;strokeColor=inherit;top=0;left=0;bottom=0;right=0;collapsible=0;dropTarget=0;fillColor=none;points=[[0,0.5],[1,0.5]];portConstraint=eastwest;" vertex="1" parent="ijUd1GON8m7grL_-jOXo-118">
          <mxGeometry width="80" height="30" as="geometry" />
        </mxCell>
        <mxCell id="ijUd1GON8m7grL_-jOXo-120" value="0.21" style="shape=partialRectangle;html=1;whiteSpace=wrap;connectable=0;strokeColor=inherit;overflow=hidden;fillColor=none;top=0;left=0;bottom=0;right=0;pointerEvents=1;" vertex="1" parent="ijUd1GON8m7grL_-jOXo-119">
          <mxGeometry width="35" height="30" as="geometry">
            <mxRectangle width="35" height="30" as="alternateBounds" />
          </mxGeometry>
        </mxCell>
        <mxCell id="ijUd1GON8m7grL_-jOXo-121" value="10" style="shape=partialRectangle;html=1;whiteSpace=wrap;connectable=0;strokeColor=inherit;overflow=hidden;fillColor=none;top=0;left=0;bottom=0;right=0;pointerEvents=1;" vertex="1" parent="ijUd1GON8m7grL_-jOXo-119">
          <mxGeometry x="35" width="45" height="30" as="geometry">
            <mxRectangle width="45" height="30" as="alternateBounds" />
          </mxGeometry>
        </mxCell>
        <mxCell id="ijUd1GON8m7grL_-jOXo-122" value="" style="shape=tableRow;horizontal=0;startSize=0;swimlaneHead=0;swimlaneBody=0;strokeColor=inherit;top=0;left=0;bottom=0;right=0;collapsible=0;dropTarget=0;fillColor=none;points=[[0,0.5],[1,0.5]];portConstraint=eastwest;" vertex="1" parent="ijUd1GON8m7grL_-jOXo-118">
          <mxGeometry y="30" width="80" height="30" as="geometry" />
        </mxCell>
        <mxCell id="ijUd1GON8m7grL_-jOXo-123" value="0.19" style="shape=partialRectangle;html=1;whiteSpace=wrap;connectable=0;strokeColor=inherit;overflow=hidden;fillColor=none;top=0;left=0;bottom=0;right=0;pointerEvents=1;" vertex="1" parent="ijUd1GON8m7grL_-jOXo-122">
          <mxGeometry width="35" height="30" as="geometry">
            <mxRectangle width="35" height="30" as="alternateBounds" />
          </mxGeometry>
        </mxCell>
        <mxCell id="ijUd1GON8m7grL_-jOXo-124" value="000" style="shape=partialRectangle;html=1;whiteSpace=wrap;connectable=0;strokeColor=inherit;overflow=hidden;fillColor=none;top=0;left=0;bottom=0;right=0;pointerEvents=1;" vertex="1" parent="ijUd1GON8m7grL_-jOXo-122">
          <mxGeometry x="35" width="45" height="30" as="geometry">
            <mxRectangle width="45" height="30" as="alternateBounds" />
          </mxGeometry>
        </mxCell>
        <mxCell id="ijUd1GON8m7grL_-jOXo-125" value="" style="shape=tableRow;horizontal=0;startSize=0;swimlaneHead=0;swimlaneBody=0;strokeColor=inherit;top=0;left=0;bottom=0;right=0;collapsible=0;dropTarget=0;fillColor=none;points=[[0,0.5],[1,0.5]];portConstraint=eastwest;" vertex="1" parent="ijUd1GON8m7grL_-jOXo-118">
          <mxGeometry y="60" width="80" height="30" as="geometry" />
        </mxCell>
        <mxCell id="ijUd1GON8m7grL_-jOXo-126" value="0.13" style="shape=partialRectangle;html=1;whiteSpace=wrap;connectable=0;strokeColor=inherit;overflow=hidden;fillColor=none;top=0;left=0;bottom=0;right=0;pointerEvents=1;" vertex="1" parent="ijUd1GON8m7grL_-jOXo-125">
          <mxGeometry width="35" height="30" as="geometry">
            <mxRectangle width="35" height="30" as="alternateBounds" />
          </mxGeometry>
        </mxCell>
        <mxCell id="ijUd1GON8m7grL_-jOXo-127" value="010" style="shape=partialRectangle;html=1;whiteSpace=wrap;connectable=0;strokeColor=inherit;overflow=hidden;fillColor=none;top=0;left=0;bottom=0;right=0;pointerEvents=1;" vertex="1" parent="ijUd1GON8m7grL_-jOXo-125">
          <mxGeometry x="35" width="45" height="30" as="geometry">
            <mxRectangle width="45" height="30" as="alternateBounds" />
          </mxGeometry>
        </mxCell>
        <mxCell id="ijUd1GON8m7grL_-jOXo-128" value="" style="shape=tableRow;horizontal=0;startSize=0;swimlaneHead=0;swimlaneBody=0;strokeColor=inherit;top=0;left=0;bottom=0;right=0;collapsible=0;dropTarget=0;fillColor=none;points=[[0,0.5],[1,0.5]];portConstraint=eastwest;" vertex="1" parent="ijUd1GON8m7grL_-jOXo-118">
          <mxGeometry y="90" width="80" height="30" as="geometry" />
        </mxCell>
        <mxCell id="ijUd1GON8m7grL_-jOXo-129" value="0.12" style="shape=partialRectangle;html=1;whiteSpace=wrap;connectable=0;strokeColor=inherit;overflow=hidden;fillColor=none;top=0;left=0;bottom=0;right=0;pointerEvents=1;" vertex="1" parent="ijUd1GON8m7grL_-jOXo-128">
          <mxGeometry width="35" height="30" as="geometry">
            <mxRectangle width="35" height="30" as="alternateBounds" />
          </mxGeometry>
        </mxCell>
        <mxCell id="ijUd1GON8m7grL_-jOXo-130" value="011" style="shape=partialRectangle;html=1;whiteSpace=wrap;connectable=0;strokeColor=inherit;overflow=hidden;fillColor=none;top=0;left=0;bottom=0;right=0;pointerEvents=1;" vertex="1" parent="ijUd1GON8m7grL_-jOXo-128">
          <mxGeometry x="35" width="45" height="30" as="geometry">
            <mxRectangle width="45" height="30" as="alternateBounds" />
          </mxGeometry>
        </mxCell>
        <mxCell id="ijUd1GON8m7grL_-jOXo-131" value="" style="shape=tableRow;horizontal=0;startSize=0;swimlaneHead=0;swimlaneBody=0;strokeColor=inherit;top=0;left=0;bottom=0;right=0;collapsible=0;dropTarget=0;fillColor=none;points=[[0,0.5],[1,0.5]];portConstraint=eastwest;" vertex="1" parent="ijUd1GON8m7grL_-jOXo-118">
          <mxGeometry y="120" width="80" height="30" as="geometry" />
        </mxCell>
        <mxCell id="ijUd1GON8m7grL_-jOXo-132" value="0.11" style="shape=partialRectangle;html=1;whiteSpace=wrap;connectable=0;strokeColor=inherit;overflow=hidden;fillColor=none;top=0;left=0;bottom=0;right=0;pointerEvents=1;" vertex="1" parent="ijUd1GON8m7grL_-jOXo-131">
          <mxGeometry width="35" height="30" as="geometry">
            <mxRectangle width="35" height="30" as="alternateBounds" />
          </mxGeometry>
        </mxCell>
        <mxCell id="ijUd1GON8m7grL_-jOXo-133" value="110" style="shape=partialRectangle;html=1;whiteSpace=wrap;connectable=0;strokeColor=inherit;overflow=hidden;fillColor=none;top=0;left=0;bottom=0;right=0;pointerEvents=1;" vertex="1" parent="ijUd1GON8m7grL_-jOXo-131">
          <mxGeometry x="35" width="45" height="30" as="geometry">
            <mxRectangle width="45" height="30" as="alternateBounds" />
          </mxGeometry>
        </mxCell>
        <mxCell id="ijUd1GON8m7grL_-jOXo-134" value="" style="shape=tableRow;horizontal=0;startSize=0;swimlaneHead=0;swimlaneBody=0;strokeColor=inherit;top=0;left=0;bottom=0;right=0;collapsible=0;dropTarget=0;fillColor=none;points=[[0,0.5],[1,0.5]];portConstraint=eastwest;" vertex="1" parent="ijUd1GON8m7grL_-jOXo-118">
          <mxGeometry y="150" width="80" height="30" as="geometry" />
        </mxCell>
        <mxCell id="ijUd1GON8m7grL_-jOXo-135" value="0.09" style="shape=partialRectangle;html=1;whiteSpace=wrap;connectable=0;strokeColor=inherit;overflow=hidden;fillColor=none;top=0;left=0;bottom=0;right=0;pointerEvents=1;" vertex="1" parent="ijUd1GON8m7grL_-jOXo-134">
          <mxGeometry width="35" height="30" as="geometry">
            <mxRectangle width="35" height="30" as="alternateBounds" />
          </mxGeometry>
        </mxCell>
        <mxCell id="ijUd1GON8m7grL_-jOXo-136" value="111" style="shape=partialRectangle;html=1;whiteSpace=wrap;connectable=0;strokeColor=inherit;overflow=hidden;fillColor=none;top=0;left=0;bottom=0;right=0;pointerEvents=1;" vertex="1" parent="ijUd1GON8m7grL_-jOXo-134">
          <mxGeometry x="35" width="45" height="30" as="geometry">
            <mxRectangle width="45" height="30" as="alternateBounds" />
          </mxGeometry>
        </mxCell>
        <mxCell id="ijUd1GON8m7grL_-jOXo-137" value="" style="shape=tableRow;horizontal=0;startSize=0;swimlaneHead=0;swimlaneBody=0;strokeColor=inherit;top=0;left=0;bottom=0;right=0;collapsible=0;dropTarget=0;fillColor=none;points=[[0,0.5],[1,0.5]];portConstraint=eastwest;" vertex="1" parent="ijUd1GON8m7grL_-jOXo-118">
          <mxGeometry y="180" width="80" height="30" as="geometry" />
        </mxCell>
        <mxCell id="ijUd1GON8m7grL_-jOXo-138" value="0.08" style="shape=partialRectangle;html=1;whiteSpace=wrap;connectable=0;strokeColor=inherit;overflow=hidden;fillColor=none;top=0;left=0;bottom=0;right=0;pointerEvents=1;" vertex="1" parent="ijUd1GON8m7grL_-jOXo-137">
          <mxGeometry width="35" height="30" as="geometry">
            <mxRectangle width="35" height="30" as="alternateBounds" />
          </mxGeometry>
        </mxCell>
        <mxCell id="ijUd1GON8m7grL_-jOXo-139" value="0010" style="shape=partialRectangle;html=1;whiteSpace=wrap;connectable=0;strokeColor=inherit;overflow=hidden;fillColor=none;top=0;left=0;bottom=0;right=0;pointerEvents=1;" vertex="1" parent="ijUd1GON8m7grL_-jOXo-137">
          <mxGeometry x="35" width="45" height="30" as="geometry">
            <mxRectangle width="45" height="30" as="alternateBounds" />
          </mxGeometry>
        </mxCell>
        <mxCell id="ijUd1GON8m7grL_-jOXo-140" value="" style="shape=tableRow;horizontal=0;startSize=0;swimlaneHead=0;swimlaneBody=0;strokeColor=inherit;top=0;left=0;bottom=0;right=0;collapsible=0;dropTarget=0;fillColor=none;points=[[0,0.5],[1,0.5]];portConstraint=eastwest;" vertex="1" parent="ijUd1GON8m7grL_-jOXo-118">
          <mxGeometry y="210" width="80" height="30" as="geometry" />
        </mxCell>
        <mxCell id="ijUd1GON8m7grL_-jOXo-141" value="0.07" style="shape=partialRectangle;html=1;whiteSpace=wrap;connectable=0;strokeColor=inherit;overflow=hidden;fillColor=none;top=0;left=0;bottom=0;right=0;pointerEvents=1;" vertex="1" parent="ijUd1GON8m7grL_-jOXo-140">
          <mxGeometry width="35" height="30" as="geometry">
            <mxRectangle width="35" height="30" as="alternateBounds" />
          </mxGeometry>
        </mxCell>
        <mxCell id="ijUd1GON8m7grL_-jOXo-142" value="0011" style="shape=partialRectangle;html=1;whiteSpace=wrap;connectable=0;strokeColor=inherit;overflow=hidden;fillColor=none;top=0;left=0;bottom=0;right=0;pointerEvents=1;" vertex="1" parent="ijUd1GON8m7grL_-jOXo-140">
          <mxGeometry x="35" width="45" height="30" as="geometry">
            <mxRectangle width="45" height="30" as="alternateBounds" />
          </mxGeometry>
        </mxCell>
      </root>
    </mxGraphModel>
  </diagram>
</mxfile>
